
<svg width="355px" height="430px" viewBox="0 0 355 430" version="1.1" xmlns="http://www.w3.org/2000/svg" xmlns:xlink="http://www.w3.org/1999/xlink">
    <defs>
        <polygon id="path-_-r7uau6pm-1" points="62 0 0 0.17442 0.1744 62.1742 62.174 61.9998"></polygon>
        <polygon id="path-_-r7uau6pm-3" points="78 0 0 0.219 0.219 78.219 78.219 78"></polygon>
    </defs>
    <g id="Page-1" stroke="none" stroke-width="1" fill="none" fill-rule="evenodd">
        <g id="A4" transform="translate(-271.000000, -31.000000)">
            <g id="Group-2" transform="translate(271.000000, 31.000000)">
                <g id="logo-big">
                    <g id="Group">
                        <path d="M291.661,0 C194.441,47.9446 97.22,95.8966 0,143.849 C0.0294,152.807 0.0515,161.774 0.081,170.733 C0.0515,170.747 0.0294,170.762 0,170.777 C0.0294,180.739 0.0589,190.702 0.0957,200.664 C0.0662,200.679 0.0294,200.694 0,200.708 C0.0294,209.667 0.0515,218.633 0.081,227.592 C0.0515,227.607 0.0294,227.622 0,227.636 C0.1251,269.611 0.2576,311.592 0.3901,353.567 C20.7499,370.071 41.1096,386.568 61.477,403.072 C68.771,399.197 76.073,395.322 83.367,391.447 C100.768,404.295 118.169,417.151 135.57,430 C155.318,400.12 175.06,370.24 194.809,340.352 C248.203,312.779 301.598,285.206 355,257.634 L355,45.7543 C333.889,30.5029 312.772,15.2514 291.661,0 Z M88.019,367.954 L82.079,376.766 L81.248,376.766 C81.041,373.17 80.828,369.573 80.622,365.976 C80.063,356.292 79.503,346.615 78.944,336.938 C78.495,329.239 78.053,321.533 77.604,313.834 C77.508,313.856 77.413,313.856 77.324,313.9 L42.7584,331.049 L19.8519,342.41 L10.386,347.106 L10.386,151.291 L287.105,14.0135 L287.105,209.828 L148.12,278.775 C132.574,301.842 117.035,324.903 101.49,347.97 C97,354.629 92.509,361.295 88.019,367.954 Z" id="Shape" fill="#AE7AFF" fill-rule="nonzero"></path>
                        <g id="Clipped" transform="translate(10.000000, 7.999900)">
                            <mask id="mask-_-r7uau6pm-2" fill="white">
                                <use xlink:href="#path-_-r7uau6pm-1"></use>
                            </mask>
                            <g id="Path"></g>
                            <path d="M31.1743,62.087 C30.1942,32.7208 29.4584,31.9938 0.0872,31.1743 C29.4533,30.1942 30.1805,29.4584 30.9999,0.08721 C31.9799,29.4533 32.7158,30.1805 62.087,30.9999 C32.7208,31.9846 31.9937,32.7068 31.1743,62.087 Z" id="Path" fill="#AE7AFF" fill-rule="nonzero" mask="url(#mask-_-r7uau6pm-2)"></path>
                        </g>
                    </g>
                    <g id="Clipped" transform="translate(256.000000, 342.000000)">
                        <mask id="mask-_-r7uau6pm-4" fill="white">
                            <use xlink:href="#path-_-r7uau6pm-3"></use>
                        </mask>
                        <g id="Path"></g>
                        <path d="M39,0.11 C40.383,21.072 57.139,37.735 78.109,39 C57.147,40.383 40.484,57.139 39.219,78.109 C37.836,57.147 21.08,40.484 0.11,39.219 C21.072,37.836 37.735,21.08 39,0.11 Z" id="Path" fill="#AE7AFF" fill-rule="nonzero" mask="url(#mask-_-r7uau6pm-4)"></path>
                    </g>
                </g>
                <g id="SLIP--SLAP" transform="translate(158.103488, 176.661573) rotate(-27.000000) translate(-158.103488, -176.661573) translate(18.400857, 102.740947)" fill="#EFE4FF" fill-rule="nonzero">
                    <path d="M26.7220245,0.406584059 L59.2737486,0.406584059 C59.2737486,4.68194638 58.5955877,7.93122174 57.2392658,10.1544101 C55.624597,12.7766324 53.0411268,14.0877435 49.4888553,14.0877435 L38.4445204,14.0877435 C35.7964634,14.0877435 34.472435,14.9998208 34.472435,16.8239754 C34.472435,17.8500623 35.1505959,18.8761493 36.5069177,19.9022362 L46.9699719,27.8544101 C49.2950951,29.6215599 51.0873775,31.3887097 52.3468192,33.1558594 C53.6062609,34.9230092 54.2359818,36.9181783 54.2359818,39.1413667 C54.2359818,40.3954729 54.0745149,41.5355696 53.7515811,42.5616565 L51.7170984,50.000787 C50.8774705,53.1360527 49.5211487,55.4162459 47.6481328,56.8413667 C45.3875964,58.5515116 42.093672,59.4065841 37.7663594,59.4065841 L7.92727897,59.3210768 C5.53756907,59.3210768 3.66455319,58.9505454 2.30823136,58.2094826 C0.951909517,57.4684198 0.273748597,56.1288063 0.273748597,54.190642 C0.273748597,53.3355696 0.402922106,52.4519947 0.661269123,51.5399174 L3.27703267,41.7065841 L5.2146353,41.7065841 C5.34380881,42.6756662 5.81206277,43.5164874 6.6193972,44.2290478 C7.42673163,44.9416082 8.37938625,45.2978884 9.47736108,45.2978884 L25.1719424,45.2978884 C26.0761569,45.2978884 26.7220245,45.0556179 27.109545,44.5710768 C27.4970655,44.0865358 27.6908258,43.5022362 27.6908258,42.8181783 C27.6908258,41.8490961 27.3033052,41.1080333 26.5282642,40.5949899 L14.5151279,31.616729 C12.642112,30.248613 11.3019369,28.8804971 10.4946025,27.5123812 C9.68726803,26.1442652 9.28360081,24.4626227 9.28360081,22.4674536 C9.28360081,20.4152797 9.78414816,17.2942652 10.7852428,13.1044101 C11.7863375,8.91455507 13.4171531,5.822043 15.6776895,3.82687391 C18.3257464,1.54668068 22.0071914,0.406584059 26.7220245,0.406584059 Z" id="Path"></path>
                    <path d="M100.226171,59 L63.8980456,59 C62.7912748,59 61.9611967,58.7292271 61.4078113,58.1876812 C60.8544258,57.6461353 60.5777331,56.9193237 60.5777331,56.0072464 C60.5777331,55.6652174 60.6428373,55.2091787 60.7730456,54.6391304 L74.0542956,4.6173913 C74.184504,3.99033816 73.9240873,3.39178744 73.2730456,2.82173913 C72.622004,2.25169082 71.9058581,1.96666667 71.1246081,1.96666667 L71.7105456,-6.70499948e-14 L97.7847644,0.0855072464 C100.584244,0.0855072464 101.983983,1.14009662 101.983983,3.24927536 C101.983983,3.64830918 101.951431,3.93333333 101.886327,4.10434783 L91.0464831,44.8913043 L103.448827,44.8913043 C104.490494,44.8913043 105.499608,44.7060386 106.476171,44.3355072 C107.452733,43.9649758 108.071223,43.4376812 108.331639,42.7536232 L110.577733,42.7536232 L107.355077,54.6391304 C106.378514,57.5463768 104.002212,59 100.226171,59 Z" id="Path"></path>
                    <path d="M151.283565,4.55308966 L138.067095,54.8313505 C137.938467,55.4013988 138.227879,55.9856984 138.93533,56.5842491 C139.642781,57.1827998 140.350232,57.4820752 141.057683,57.4820752 L140.382389,59.4487418 L113.563565,59.4487418 C111.505526,59.4487418 110.476507,58.5366645 110.476507,56.71251 C110.476507,56.4844906 110.54082,56.028452 110.669448,55.344394 L123.885918,5.06613314 C124.014546,4.49608483 123.757291,3.91178531 123.114154,3.31323459 C122.471016,2.71468386 121.795722,2.4154085 121.088271,2.4154085 L121.570624,0.448741835 L148.389448,0.448741835 C149.482781,0.448741835 150.270624,0.691012366 150.752977,1.17555343 C151.23533,1.66009449 151.476507,2.35840367 151.476507,3.27048097 L151.283565,4.55308966 Z" id="Path"></path>
                    <path d="M162.903208,0.354025312 L206.54664,0.354025312 C212.548427,0.354025312 217.082386,1.40861468 220.148517,3.51779343 C223.214647,5.62697217 224.747713,8.96175478 224.747713,13.5221413 C224.747713,14.7762475 224.682476,15.9163442 224.552002,16.9424311 C224.421528,17.9685181 224.127963,19.2511268 223.671305,20.7902572 C221.583727,28.6569239 219.235201,33.8586147 216.625729,36.3953297 C214.016256,38.9320446 209.743244,40.2004021 203.806694,40.2004021 L183.648517,40.2004021 L180.027873,53.6250398 L179.734308,55.2496775 C179.734308,55.8767306 180.027873,56.3897741 180.615005,56.7888079 C181.202136,57.1878417 181.887123,57.3873586 182.669965,57.3873586 L182.082833,59.3540253 L155.07479,59.3540253 C153.965764,59.3540253 153.133995,59.0832524 152.579482,58.5417065 C152.024969,58.0001606 151.747713,57.273349 151.747713,56.3612717 C151.747713,56.0192427 151.812949,55.5632041 151.943423,54.9931557 L165.251734,4.97141662 C165.382208,4.34436348 165.12126,3.74581275 164.468892,3.17576444 C163.816524,2.60571613 163.098919,2.32069198 162.316077,2.32069198 L162.903208,0.354025312 Z M190.791948,13.6076485 L187.367015,26.5192427 L190.400528,26.5192427 C192.031448,26.5192427 193.238329,26.0774553 194.021171,25.1938804 C194.804013,24.3103055 195.521618,22.6144118 196.173986,20.1061992 C196.565407,18.6240736 196.761117,17.4554746 196.761117,16.6004021 C196.761117,15.4603055 196.483861,14.6764891 195.929348,14.2489528 C195.374835,13.8214166 194.543066,13.6076485 193.43404,13.6076485 L190.791948,13.6076485 Z" id="Shape"></path>
                    <polygon id="Path" points="232.405264 43.6122085 232.405264 33.6122085 279.405264 33.6122085 279.405264 43.6122085"></polygon>
                    <path d="M26.4482759,88.2696882 L59,88.2696882 C59,92.5450505 58.3218391,95.7943258 56.9655172,98.0175142 C55.3508484,100.639736 52.7673782,101.950848 49.2151067,101.950848 L38.1707718,101.950848 C35.5227148,101.950848 34.1986864,102.862925 34.1986864,104.687079 C34.1986864,105.713166 34.8768473,106.739253 36.2331691,107.76534 L46.6962233,115.717514 C49.0213465,117.484664 50.8136289,119.251814 52.0730706,121.018964 C53.3325123,122.786113 53.9622332,124.781282 53.9622332,127.004471 C53.9622332,128.258577 53.8007663,129.398674 53.4778325,130.424761 L51.4433498,137.863891 C50.6037219,140.999157 49.2474001,143.27935 47.3743842,144.704471 C45.1138478,146.414616 41.8199234,147.269688 37.4926108,147.269688 L7.65353038,147.184181 C5.26382047,147.184181 3.3908046,146.81365 2.03448276,146.072587 C0.67816092,145.331524 2.22581492e-14,143.99191 2.22581492e-14,142.053746 C2.22581492e-14,141.198674 0.129173508,140.315099 0.387520525,139.403021 L3.00328407,129.569688 L4.9408867,129.569688 C5.07006021,130.53877 5.53831418,131.379592 6.3456486,132.092152 C7.15298303,132.804712 8.10563766,133.160993 9.20361248,133.160993 L24.8981938,133.160993 C25.8024083,133.160993 26.4482759,132.918722 26.8357964,132.434181 C27.2233169,131.94964 27.4170772,131.36534 27.4170772,130.681282 C27.4170772,129.7122 27.0295567,128.971137 26.2545156,128.458094 L14.2413793,119.479833 C12.3683634,118.111717 11.0281883,116.743601 10.2208539,115.375485 C9.41351943,114.007369 9.00985222,112.325727 9.00985222,110.330558 C9.00985222,108.278384 9.51039956,105.157369 10.5114943,100.967514 C11.5125889,96.7776592 13.1434045,93.6851471 15.4039409,91.689978 C18.0519978,89.4097848 21.7334428,88.2696882 26.4482759,88.2696882 Z" id="Path"></path>
                    <path d="M99.7445103,147.841252 L63.4163853,147.841252 C62.3096145,147.841252 61.4795364,147.570479 60.926151,147.028933 C60.3727655,146.487387 60.0960728,145.760575 60.0960728,144.848498 C60.0960728,144.506469 60.161177,144.05043 60.2913853,143.480382 L73.5726353,93.458643 C73.7028437,92.8315899 73.442427,92.2330391 72.7913853,91.6629908 C72.1403437,91.0929425 71.4241978,90.8079184 70.6429478,90.8079184 L71.2288853,88.8412517 L97.3031041,88.9267589 C100.102583,88.9267589 101.502323,89.9813483 101.502323,92.0905271 C101.502323,92.4895609 101.469771,92.774585 101.404667,92.9455995 L90.5648228,133.732556 L102.967167,133.732556 C104.008833,133.732556 105.017948,133.54729 105.99451,133.176759 C106.971073,132.806228 107.589562,132.278933 107.849979,131.594875 L110.096073,131.594875 L106.873417,143.480382 C105.896854,146.387629 103.520552,147.841252 99.7445103,147.841252 Z" id="Path"></path>
                    <path d="M173.946725,147.1228 L148.863392,147.1228 C147.178206,147.1228 145.930521,146.88053 145.120336,146.395989 C144.310151,145.911447 143.840243,145.070626 143.710614,143.873525 L142.835614,135.151786 L131.557836,135.151786 L127.571725,142.16338 C127.50691,142.334394 127.474503,142.476906 127.474503,142.590916 C127.474503,142.704926 127.442095,142.932945 127.37728,143.274974 C127.37728,143.788017 127.652743,144.229805 128.203669,144.600336 C128.754595,144.970868 129.38654,145.156133 130.099503,145.156133 L129.613392,147.1228 L108.516169,147.1228 C105.793947,147.1228 104.432836,146.18222 104.432836,144.301061 C104.432836,143.788017 104.594873,143.246472 104.918947,142.676423 L133.50228,93.9372929 C133.696725,93.5952639 133.793947,93.1677276 133.793947,92.6546842 C133.793947,92.027631 133.486077,91.4433315 132.870336,90.9017856 C132.254595,90.3602397 131.590243,90.0894668 130.87728,90.0894668 L131.460614,88.1228001 L160.432836,88.1228001 C161.923577,88.1228001 163.187466,88.4790803 164.224503,89.1916407 C165.26154,89.9042011 165.780058,90.9160368 165.780058,92.2271479 L170.25228,142.16338 C170.25228,142.904443 170.705984,143.588501 171.613392,144.215554 C172.520799,144.842607 173.460614,145.156133 174.432836,145.156133 L173.946725,147.1228 Z M142.057836,114.117003 L137.293947,123.693815 L142.835614,123.693815 L142.057836,114.117003 Z" id="Shape"></path>
                    <path d="M187.144561,88.316272 L230.787992,88.316272 C236.78978,88.316272 241.323739,89.3708614 244.389869,91.4800401 C247.456,93.5892188 248.989065,96.9240015 248.989065,101.484388 C248.989065,102.738494 248.923828,103.878591 248.793354,104.904678 C248.662881,105.930765 248.369315,107.213373 247.912657,108.752504 C245.825079,116.619171 243.476554,121.820861 240.867081,124.357576 C238.257608,126.894291 233.984597,128.162649 228.048046,128.162649 L207.889869,128.162649 L204.269226,141.587286 L203.97566,143.211924 C203.97566,143.838977 204.269226,144.352021 204.856357,144.751055 C205.443488,145.150088 206.128475,145.349605 206.911317,145.349605 L206.324185,147.316272 L179.316143,147.316272 C178.207117,147.316272 177.375347,147.045499 176.820834,146.503953 C176.266321,145.962407 175.989065,145.235596 175.989065,144.323518 C175.989065,143.981489 176.054302,143.525451 176.184775,142.955402 L189.493086,92.9336633 C189.62356,92.3066101 189.362613,91.7080594 188.710244,91.1380111 C188.057876,90.5679628 187.340271,90.2829387 186.557429,90.2829387 L187.144561,88.316272 Z M215.033301,101.569895 L211.608368,114.481489 L214.64188,114.481489 C216.2728,114.481489 217.479681,114.039702 218.262523,113.156127 C219.045365,112.272552 219.76297,110.576658 220.415338,108.068446 C220.806759,106.58632 221.00247,105.417721 221.00247,104.562649 C221.00247,103.422552 220.725213,102.638736 220.1707,102.2112 C219.616187,101.783663 218.784418,101.569895 217.675392,101.569895 L215.033301,101.569895 Z" id="Shape"></path>
                </g>
            </g>
        </g>
    </g>
</svg>