
<svg width="54px" height="66px" viewBox="0 0 54 66" version="1.1" xmlns="http://www.w3.org/2000/svg" xmlns:xlink="http://www.w3.org/1999/xlink">
    <defs>
        <polygon id="path-35vv-io6z1-1" points="9.43098592 0 0 0.0267714419 0.0265284507 9.54301674 9.45745352 9.51624837"></polygon>
        <polygon id="path-35vv-io6z1-3" points="11.8647887 0 0 0.0336139535 0.0333126761 12.005707 11.8981014 11.972093"></polygon>
    </defs>
    <g id="Page-1" stroke="none" stroke-width="1" fill="none" fill-rule="evenodd">
        <g id="A4" transform="translate(-271.000000, -31.000000)">
            <g id="Group-2" transform="translate(271.000000, 31.000000)">
                <g id="logo-big">
                    <g id="Group">
                        <path d="M44.3653352,0 C29.5769408,7.3589386 14.7883944,14.719013 0,22.0791488 C0.00447211268,23.4540977 0.00783380282,24.8304279 0.0123211268,26.2055302 C0.00783380282,26.2076791 0.00447211268,26.2099814 0,26.2122837 C0.00447211268,27.7413349 0.00895943662,29.2705395 0.0145571831,30.7995907 C0.0100698592,30.801893 0.00447211268,30.8041953 0,30.8063442 C0.00447211268,32.1814465 0.00783380282,33.5576233 0.0123211268,34.9327256 C0.00783380282,34.9350279 0.00447211268,34.9373302 0,34.9394791 C0.0190292958,41.3821535 0.0391842254,47.8257488 0.0593391549,54.2684233 C3.15632282,56.8015953 6.25329127,59.333693 9.35143099,61.8668651 C10.4609408,61.2720977 11.5716676,60.6773302 12.6811775,60.0825628 C15.3280901,62.0545814 17.9750028,64.0278279 20.6219155,66 C23.6258366,61.4137674 26.6288451,56.8275349 29.6329183,52.2400744 C37.7548225,48.0079395 45.8768789,43.7758047 54,39.5438233 L54,7.02275302 C50.7887493,4.68184047 47.5765859,2.34091256 44.3653352,0 Z M13.3888056,56.4766605 L12.4852563,57.8292 L12.3588507,57.8292 C12.3273634,57.2772558 12.2949634,56.7251581 12.2636282,56.1730605 C12.1785972,54.6866791 12.0934141,53.2013721 12.0083831,51.7160651 C11.9400845,50.5343581 11.8728507,49.3515767 11.8045521,48.1698698 C11.7899493,48.1732465 11.7754986,48.1732465 11.7619606,48.18 L6.50409465,50.8121721 L3.01972563,52.5559535 L1.57984225,53.2767349 L1.57984225,23.2214093 L43.6723099,2.1509093 L43.6723099,32.2061581 L22.5309296,42.7887209 C20.1661859,46.3292372 17.802507,49.8688326 15.4379155,53.4093488 C14.7549296,54.4314279 14.0717915,55.4545814 13.3888056,56.4766605 Z" id="Shape" fill="#AE7AFF" fill-rule="nonzero"></path>
                        <g id="Clipped" transform="translate(1.521127, 1.227892)">
                            <mask id="mask-35vv-io6z1-2" fill="white">
                                <use xlink:href="#path-35vv-io6z1-1"></use>
                            </mask>
                            <g id="Path"></g>
                            <path d="M4.7420062,9.52963256 C4.59292056,5.02226233 4.48099606,4.91067628 0.0132642254,4.78489256 C4.48022028,4.6344586 4.59083662,4.52152186 4.71547775,0.0133857209 C4.86454817,4.52073907 4.97648789,4.63235581 9.44421972,4.75812419 C4.97724845,4.90926419 4.86664732,5.02011349 4.7420062,9.52963256 Z" id="Path" fill="#AE7AFF" fill-rule="nonzero" mask="url(#mask-35vv-io6z1-2)"></path>
                        </g>
                    </g>
                    <g id="Clipped" transform="translate(38.940845, 52.493023)">
                        <mask id="mask-35vv-io6z1-4" fill="white">
                            <use xlink:href="#path-35vv-io6z1-3"></use>
                        </mask>
                        <g id="Path"></g>
                        <path d="M5.93239437,0.0168837209 C6.1427662,3.23430698 8.6915662,5.79188372 11.881369,5.98604651 C8.6927831,6.19832093 6.15812958,8.77017209 5.96570704,11.9888233 C5.75533521,8.7714 3.20653521,6.21382326 0.0167323944,6.01966047 C3.20531831,5.80738605 5.73997183,3.23553488 5.93239437,0.0168837209 Z" id="Path" fill="#AE7AFF" fill-rule="nonzero" mask="url(#mask-35vv-io6z1-4)"></path>
                    </g>
                </g>
                <g id="SLIP--SLAP" transform="translate(24.267047, 27.115497) rotate(-27.000000) translate(-24.267047, -27.115497) translate(2.824318, 15.769541)" fill="#EFE4FF" fill-rule="nonzero">
                    <path d="M4.10152003,0.0624059254 L9.09783118,0.0624059254 C9.09783118,0.718624328 8.99374136,1.21735031 8.78556173,1.55858388 C8.53772884,1.9610645 8.14119621,2.16230481 7.59596384,2.16230481 L5.90078685,2.16230481 C5.4943409,2.16230481 5.29111793,2.30229807 5.29111793,2.58228459 C5.29111793,2.73977701 5.39520774,2.89726942 5.60338737,3.05476184 L7.20934453,4.27532807 C7.56622389,4.54656501 7.84131841,4.81780195 8.03462806,5.08903889 C8.22793772,5.36027583 8.32459255,5.66651108 8.32459255,6.00774465 C8.32459255,6.20023538 8.29980926,6.37522696 8.25024268,6.53271937 L7.93797324,7.67453939 C7.80910013,8.15576622 7.6009205,8.50574937 7.31343434,8.72448884 C6.96646829,8.9869762 6.46088919,9.11821988 5.79669703,9.11821988 L1.21674514,9.10509551 C0.849952462,9.10509551 0.562466304,9.04822325 0.354286673,8.93447873 C0.146107042,8.8207342 0.0420172265,8.6151191 0.0420172265,8.31763343 C0.0420172265,8.18638975 0.0618438581,8.05077128 0.101497121,7.91077802 L0.50298641,6.40147569 L0.800385883,6.40147569 C0.820212514,6.55021853 0.892084054,6.67927482 1.0160005,6.78864455 C1.13991695,6.89801428 1.28613836,6.95269915 1.45466472,6.95269915 L3.86360045,6.95269915 C4.00238688,6.95269915 4.10152003,6.91551344 4.16099993,6.84114202 C4.22047982,6.7667706 4.25021977,6.67708742 4.25021977,6.57209248 C4.25021977,6.42334964 4.19073988,6.30960512 4.07178009,6.23085891 L2.22790335,4.85280026 C1.9404172,4.64281037 1.73471589,4.43282049 1.61079945,4.2228306 C1.486883,4.01284071 1.42492478,3.75472814 1.42492478,3.44849288 C1.42492478,3.13350805 1.50175297,2.65446861 1.65540937,2.01137458 C1.80906576,1.36828055 2.05937699,0.893615902 2.40634304,0.587380647 C2.81278898,0.237397499 3.37784798,0.0624059254 4.10152003,0.0624059254 Z" id="Path"></path>
                    <path d="M15.3835518,9.05581395 L9.807607,9.05581395 C9.63773055,9.05581395 9.51032321,9.01425345 9.42538498,8.93113246 C9.34044676,8.84801146 9.29797764,8.73645433 9.29797764,8.59646107 C9.29797764,8.5439636 9.30797038,8.47396697 9.32795584,8.38647118 L11.3664733,0.708715875 C11.3864587,0.612470509 11.3464878,0.520599933 11.2465605,0.433104146 C11.1466332,0.345608359 11.0367131,0.301860465 10.9168003,0.301860465 L11.0067349,-9.72854422e-15 L15.0088243,0.013124368 C15.4385118,0.013124368 15.6533555,0.174991574 15.6533555,0.498725986 C15.6533555,0.559973037 15.6483592,0.60372093 15.6383665,0.629969666 L13.9745765,6.89029323 L15.878192,6.89029323 C16.0380758,6.89029323 16.1929631,6.86185709 16.3428541,6.80498483 C16.4927451,6.74811257 16.587676,6.66717897 16.627647,6.56218402 L16.9723962,6.56218402 L16.477756,8.38647118 C16.327865,8.8326997 15.9631303,9.05581395 15.3835518,9.05581395 Z" id="Path"></path>
                    <path d="M23.2202682,0.69884632 L21.1916936,8.41597473 C21.1719508,8.50347052 21.2163721,8.5931537 21.3249576,8.68502428 C21.4335431,8.77689485 21.5421286,8.82283014 21.6507141,8.82283014 L21.5470643,9.12469061 L17.4306868,9.12469061 C17.1148017,9.12469061 16.9568591,8.98469735 16.9568591,8.70471083 C16.9568591,8.66971251 16.9667306,8.59971589 16.9864734,8.49472094 L19.0150479,0.777592528 C19.0347907,0.690096741 18.9953051,0.60041356 18.896591,0.508542983 C18.7978769,0.416672407 18.6942271,0.370737119 18.5856416,0.370737119 L18.6596772,0.0688766537 L22.7760548,0.0688766537 C22.9438687,0.0688766537 23.0647935,0.106062363 23.1388291,0.180433782 C23.2128646,0.254805201 23.2498824,0.36198754 23.2498824,0.501980799 L23.2202682,0.69884632 Z" id="Path"></path>
                    <path d="M25.0037483,0.0543387688 L31.7025076,0.0543387688 C32.6237121,0.0543387688 33.3196221,0.216205975 33.7902375,0.539940387 C34.2608528,0.863674798 34.4961605,1.37552515 34.4961605,2.07549145 C34.4961605,2.26798218 34.4861474,2.44297375 34.4661212,2.60046617 C34.4460951,2.75795859 34.4010361,2.95482411 34.3309445,3.19106273 C34.0105255,4.39850459 33.6500542,5.19690365 33.2495304,5.5862599 C32.8490067,5.97561615 32.1931491,6.17029428 31.2819576,6.17029428 L28.1879119,6.17029428 L27.6321852,8.23082006 L27.5871263,8.48018306 C27.5871263,8.57642842 27.6321852,8.65517463 27.7223031,8.71642168 C27.8124209,8.77766873 27.9175584,8.80829226 28.0377155,8.80829226 L27.9475976,9.11015272 L23.8021771,9.11015272 C23.6319545,9.11015272 23.5042876,9.06859222 23.4191763,8.98547123 C23.334065,8.90235023 23.2915094,8.7907931 23.2915094,8.65079984 C23.2915094,8.59830237 23.3015225,8.52830574 23.3215486,8.44080995 L25.3642196,0.763054643 C25.3842458,0.666809278 25.3441934,0.574938701 25.2440625,0.487442914 C25.1439316,0.399947127 25.0337876,0.356199234 24.9136304,0.356199234 L25.0037483,0.0543387688 Z M29.2843456,2.08861582 L28.7586582,4.07039539 L29.224267,4.07039539 C29.4745943,4.07039539 29.6598366,4.00258616 29.7799937,3.86696769 C29.9001508,3.73134922 30.0102948,3.47104925 30.1104258,3.08606779 C30.1705043,2.85857874 30.2005436,2.67921238 30.2005436,2.5479687 C30.2005436,2.37297712 30.1579879,2.25267042 30.0728767,2.18704858 C29.9877654,2.12142674 29.8600984,2.08861582 29.6898758,2.08861582 L29.2843456,2.08861582 Z" id="Shape"></path>
                    <polygon id="Path" points="35.6715056 6.69396688 35.6715056 5.15908316 42.8854591 5.15908316 42.8854591 6.69396688"></polygon>
                    <path d="M4.05950281,13.5483707 L9.05581395,13.5483707 C9.05581395,14.2045891 8.95172414,14.7033151 8.74354451,15.0445487 C8.49571161,15.4470293 8.09917898,15.6482696 7.55394661,15.6482696 L5.85876962,15.6482696 C5.45232367,15.6482696 5.2491007,15.7882629 5.2491007,16.0682494 C5.2491007,16.2257418 5.35319051,16.3832342 5.56137015,16.5407267 L7.1673273,17.7612929 C7.52420667,18.0325298 7.79930118,18.3037668 7.99261084,18.5750037 C8.18592049,18.8462406 8.28257532,19.1524759 8.28257532,19.4937095 C8.28257532,19.6862002 8.25779203,19.8611918 8.20822546,20.0186842 L7.89595601,21.1605042 C7.7670829,21.641731 7.55890327,21.9917142 7.27141712,22.2104537 C6.92445106,22.472941 6.41887196,22.6041847 5.7546798,22.6041847 L1.17472792,22.5910603 C0.807935235,22.5910603 0.520449078,22.5341881 0.312269447,22.4204435 C0.104089816,22.306699 3.43925564e-14,22.1010839 3.43925564e-14,21.8035982 C3.43925564e-14,21.6723546 0.0198266315,21.5367361 0.0594798946,21.3967428 L0.460969183,19.8874405 L0.758368656,19.8874405 C0.778195288,20.0361833 0.850066827,20.1652396 0.973983274,20.2746094 C1.09789972,20.3839791 1.24412113,20.438664 1.4126475,20.438664 L3.82158323,20.438664 C3.96036965,20.438664 4.05950281,20.4014783 4.1189827,20.3271068 C4.1784626,20.2527354 4.20820254,20.1630522 4.20820254,20.0580573 C4.20820254,19.9093145 4.14872265,19.7955699 4.02976286,19.7168237 L2.18588613,18.3387651 C1.89839997,18.1287752 1.69269867,17.9187853 1.56878222,17.7087954 C1.44486577,17.4988055 1.38290755,17.240693 1.38290755,16.9344577 C1.38290755,16.6194729 1.45973575,16.1404334 1.61339214,15.4973394 C1.76704854,14.8542454 2.01735976,14.3795807 2.36432581,14.0733455 C2.77077176,13.7233623 3.33583076,13.5483707 4.05950281,13.5483707 Z" id="Path"></path>
                    <path d="M15.3096225,22.6919131 L9.73367775,22.6919131 C9.5638013,22.6919131 9.43639396,22.6503526 9.35145573,22.5672316 C9.2665175,22.4841106 9.22404839,22.3725534 9.22404839,22.2325602 C9.22404839,22.1800627 9.23404112,22.1100661 9.25402659,22.0225703 L11.292544,14.344815 C11.3125295,14.2485696 11.2725586,14.156699 11.1726312,14.0692032 C11.0727039,13.9817075 10.9627839,13.9379596 10.8428711,13.9379596 L10.9328057,13.6360991 L14.934895,13.6492235 C15.3645825,13.6492235 15.5794263,13.8110907 15.5794263,14.1348251 C15.5794263,14.1960721 15.5744299,14.23982 15.5644372,14.2660688 L13.9006472,20.5263923 L15.8042628,20.5263923 C15.9641465,20.5263923 16.1190339,20.4979562 16.2689248,20.4410839 C16.4188158,20.3842117 16.5137468,20.3032781 16.5537177,20.1982831 L16.898467,20.1982831 L16.4038267,22.0225703 C16.2539357,22.4687988 15.889201,22.6919131 15.3096225,22.6919131 Z" id="Path"></path>
                    <path d="M26.6987996,22.5816391 L22.8487996,22.5816391 C22.5901433,22.5816391 22.3986381,22.5444534 22.2742841,22.470082 C22.1499301,22.3957105 22.0778048,22.2666543 22.0579082,22.0829131 L21.9236058,20.7442276 L20.1925981,20.7442276 L19.5807764,21.8204257 C19.5708281,21.8466745 19.5658539,21.8685484 19.5658539,21.8860476 C19.5658539,21.9035467 19.5608797,21.9385451 19.5509314,21.9910425 C19.5509314,22.0697887 19.5932118,22.137598 19.6777725,22.1944702 C19.7623332,22.2513425 19.8593293,22.2797786 19.9687609,22.2797786 L19.8941485,22.5816391 L16.6559702,22.5816391 C16.2381407,22.5816391 16.029226,22.437271 16.029226,22.1485349 C16.029226,22.0697887 16.0540968,21.9866677 16.1038384,21.8991719 L20.4910477,14.4182822 C20.5208927,14.3657847 20.5358151,14.3001628 20.5358151,14.2214166 C20.5358151,14.1251713 20.4885606,14.0354881 20.3940516,13.9523671 C20.2995425,13.8692461 20.1975722,13.8276856 20.0881407,13.8276856 L20.1776756,13.5258251 L24.6245748,13.5258251 C24.8533862,13.5258251 25.0473784,13.58051 25.2065516,13.6898797 C25.3657247,13.7992495 25.4453113,13.9545545 25.4453113,14.1557948 L26.1317454,21.8204257 C26.1317454,21.9341703 26.2013836,22.0391652 26.3406601,22.1354106 C26.4799366,22.2316559 26.6241872,22.2797786 26.773412,22.2797786 L26.6987996,22.5816391 Z M21.804226,17.515633 L21.0730244,18.9855622 L21.9236058,18.9855622 L21.804226,17.515633 Z" id="Shape"></path>
                    <path d="M28.724514,13.5555208 L35.4232733,13.5555208 C36.3444778,13.5555208 37.0403878,13.717388 37.5110032,14.0411224 C37.9816185,14.3648568 38.2169262,14.8767072 38.2169262,15.5766735 C38.2169262,15.7691642 38.2069131,15.9441558 38.1868869,16.1016482 C38.1668608,16.2591406 38.1218018,16.4560062 38.0517102,16.6922448 C37.7312912,17.8996866 37.3708199,18.6980857 36.9702961,19.0874419 C36.5697724,19.4767982 35.9139148,19.6714763 35.0027233,19.6714763 L31.9086776,19.6714763 L31.3529509,21.7320021 L31.307892,21.9813651 C31.307892,22.0776105 31.3529509,22.1563567 31.4430688,22.2176037 C31.5331866,22.2788508 31.6383241,22.3094743 31.7584812,22.3094743 L31.6683633,22.6113348 L27.5229428,22.6113348 C27.3527202,22.6113348 27.2250533,22.5697743 27.139942,22.4866533 C27.0548307,22.4035323 27.0122751,22.2919751 27.0122751,22.1519819 C27.0122751,22.0994844 27.0222882,22.0294878 27.0423143,21.941992 L29.0849853,14.2642367 C29.1050115,14.1679913 29.0649591,14.0761207 28.9648282,13.988625 C28.8646973,13.9011292 28.7545533,13.8573813 28.6343961,13.8573813 L28.724514,13.5555208 Z M33.0051113,15.5897979 L32.4794239,17.5715774 L32.9450327,17.5715774 C33.19536,17.5715774 33.3806023,17.5037682 33.5007594,17.3681497 C33.6209165,17.2325313 33.7310605,16.9722313 33.8311915,16.5872498 C33.89127,16.3597608 33.9213093,16.1803944 33.9213093,16.0491507 C33.9213093,15.8741592 33.8787536,15.7538525 33.7936424,15.6882306 C33.7085311,15.6226088 33.5808641,15.5897979 33.4106415,15.5897979 L33.0051113,15.5897979 Z" id="Shape"></path>
                </g>
            </g>
        </g>
    </g>
</svg>